<mxfile host="65bd71144e">
    <diagram id="zUfg4UiD8HdnF6UpXdQO" name="Página-1">
        <mxGraphModel dx="2182" dy="1173" grid="1" gridSize="10" guides="1" tooltips="1" connect="1" arrows="1" fold="1" page="1" pageScale="1" pageWidth="827" pageHeight="1169" math="0" shadow="0">
            <root>
                <mxCell id="0"/>
                <mxCell id="1" parent="0"/>
                <mxCell id="2" value="laboratorio_usuarios" style="shape=umlFrame;whiteSpace=wrap;html=1;pointerEvents=0;recursiveResize=0;container=1;collapsible=0;width=160;" vertex="1" parent="1">
                    <mxGeometry x="-10" y="150" width="780" height="710" as="geometry"/>
                </mxCell>
                <mxCell id="3" value="Conexion" style="swimlane;fontStyle=1;align=center;verticalAlign=top;childLayout=stackLayout;horizontal=1;startSize=26;horizontalStack=0;resizeParent=1;resizeParentMax=0;resizeLast=0;collapsible=1;marginBottom=0;whiteSpace=wrap;html=1;" vertex="1" parent="2">
                    <mxGeometry x="30" y="60" width="200" height="270" as="geometry"/>
                </mxCell>
                <mxCell id="4" value="-DATABASE: String&lt;div&gt;-USERNAME: String&lt;/div&gt;&lt;div&gt;-PASSWORD: String&lt;/div&gt;&lt;div&gt;-DB PORT: String&lt;/div&gt;&lt;div&gt;-HOST: String&lt;/div&gt;&lt;div&gt;-MIN_CON: int&lt;/div&gt;&lt;div&gt;-MAX_CON: int&lt;/div&gt;&lt;div&gt;-pool: Pool&lt;/div&gt;" style="text;strokeColor=none;fillColor=none;align=left;verticalAlign=top;spacingLeft=4;spacingRight=4;overflow=hidden;rotatable=0;points=[[0,0.5],[1,0.5]];portConstraint=eastwest;whiteSpace=wrap;html=1;" vertex="1" parent="3">
                    <mxGeometry y="26" width="200" height="124" as="geometry"/>
                </mxCell>
                <mxCell id="5" value="" style="line;strokeWidth=1;fillColor=none;align=left;verticalAlign=middle;spacingTop=-1;spacingLeft=3;spacingRight=3;rotatable=0;labelPosition=right;points=[];portConstraint=eastwest;strokeColor=inherit;" vertex="1" parent="3">
                    <mxGeometry y="150" width="200" height="10" as="geometry"/>
                </mxCell>
                <mxCell id="6" value="+obtenerPool(cls): Pool&lt;div&gt;+obtenerConexion(cls): Connection&lt;/div&gt;&lt;div&gt;+liberarConexion(cls, conexion)&lt;/div&gt;&lt;div&gt;+cerrarConexiones(cls)&lt;/div&gt;" style="text;strokeColor=none;fillColor=none;align=left;verticalAlign=top;spacingLeft=4;spacingRight=4;overflow=hidden;rotatable=0;points=[[0,0.5],[1,0.5]];portConstraint=eastwest;whiteSpace=wrap;html=1;" vertex="1" parent="3">
                    <mxGeometry y="160" width="200" height="70" as="geometry"/>
                </mxCell>
                <mxCell id="13" value="" style="line;strokeWidth=1;fillColor=none;align=left;verticalAlign=middle;spacingTop=-1;spacingLeft=3;spacingRight=3;rotatable=0;labelPosition=right;points=[];portConstraint=eastwest;strokeColor=inherit;" vertex="1" parent="3">
                    <mxGeometry y="230" width="200" height="10" as="geometry"/>
                </mxCell>
                <mxCell id="12" value="Responsabilidades:" style="text;strokeColor=none;fillColor=none;align=left;verticalAlign=top;spacingLeft=4;spacingRight=4;overflow=hidden;rotatable=0;points=[[0,0.5],[1,0.5]];portConstraint=eastwest;whiteSpace=wrap;html=1;" vertex="1" parent="3">
                    <mxGeometry y="240" width="200" height="30" as="geometry"/>
                </mxCell>
                <mxCell id="14" value="CursorDelPool" style="swimlane;fontStyle=1;align=center;verticalAlign=top;childLayout=stackLayout;horizontal=1;startSize=26;horizontalStack=0;resizeParent=1;resizeParentMax=0;resizeLast=0;collapsible=1;marginBottom=0;whiteSpace=wrap;html=1;" vertex="1" parent="2">
                    <mxGeometry x="31" y="410" width="200" height="260" as="geometry"/>
                </mxCell>
                <mxCell id="15" value="-conn: String&lt;div&gt;-cursor: String&lt;/div&gt;" style="text;strokeColor=none;fillColor=none;align=left;verticalAlign=top;spacingLeft=4;spacingRight=4;overflow=hidden;rotatable=0;points=[[0,0.5],[1,0.5]];portConstraint=eastwest;whiteSpace=wrap;html=1;" vertex="1" parent="14">
                    <mxGeometry y="26" width="200" height="44" as="geometry"/>
                </mxCell>
                <mxCell id="16" value="" style="line;strokeWidth=1;fillColor=none;align=left;verticalAlign=middle;spacingTop=-1;spacingLeft=3;spacingRight=3;rotatable=0;labelPosition=right;points=[];portConstraint=eastwest;strokeColor=inherit;" vertex="1" parent="14">
                    <mxGeometry y="70" width="200" height="10" as="geometry"/>
                </mxCell>
                <mxCell id="17" value="&lt;div&gt;&lt;font color=&quot;#000000&quot;&gt;+__init__(self)&lt;/font&gt;&lt;/div&gt;&lt;div&gt;+__enter__(self)&lt;/div&gt;&lt;div&gt;+__exit__(self)&lt;/div&gt;" style="text;strokeColor=none;fillColor=none;align=left;verticalAlign=top;spacingLeft=4;spacingRight=4;overflow=hidden;rotatable=0;points=[[0,0.5],[1,0.5]];portConstraint=eastwest;whiteSpace=wrap;html=1;" vertex="1" parent="14">
                    <mxGeometry y="80" width="200" height="60" as="geometry"/>
                </mxCell>
                <mxCell id="18" value="" style="line;strokeWidth=1;fillColor=none;align=left;verticalAlign=middle;spacingTop=-1;spacingLeft=3;spacingRight=3;rotatable=0;labelPosition=right;points=[];portConstraint=eastwest;strokeColor=inherit;" vertex="1" parent="14">
                    <mxGeometry y="140" width="200" height="10" as="geometry"/>
                </mxCell>
                <mxCell id="19" value="Responsabilidades:&lt;div&gt;Administrar el objeto conexión y cursor obtenidos a partir del pool de conexiones. Los métodos enter y exit son la implementación del uso de &quot;with&quot; para trabajar con el cursor&lt;/div&gt;" style="text;strokeColor=none;fillColor=none;align=left;verticalAlign=top;spacingLeft=4;spacingRight=4;overflow=hidden;rotatable=0;points=[[0,0.5],[1,0.5]];portConstraint=eastwest;whiteSpace=wrap;html=1;" vertex="1" parent="14">
                    <mxGeometry y="150" width="200" height="110" as="geometry"/>
                </mxCell>
                <mxCell id="20" value="Conexion" style="swimlane;fontStyle=1;align=center;verticalAlign=top;childLayout=stackLayout;horizontal=1;startSize=26;horizontalStack=0;resizeParent=1;resizeParentMax=0;resizeLast=0;collapsible=1;marginBottom=0;whiteSpace=wrap;html=1;" vertex="1" parent="2">
                    <mxGeometry x="310" y="410" width="200" height="270" as="geometry"/>
                </mxCell>
                <mxCell id="21" value="-SELECCIONAR: String&lt;div&gt;-INSERTAR: String&lt;/div&gt;&lt;div&gt;-ACTUALIZAR: String&lt;/div&gt;&lt;div&gt;-ELIMINAR: String&lt;/div&gt;" style="text;strokeColor=none;fillColor=none;align=left;verticalAlign=top;spacingLeft=4;spacingRight=4;overflow=hidden;rotatable=0;points=[[0,0.5],[1,0.5]];portConstraint=eastwest;whiteSpace=wrap;html=1;" vertex="1" parent="20">
                    <mxGeometry y="26" width="200" height="74" as="geometry"/>
                </mxCell>
                <mxCell id="22" value="" style="line;strokeWidth=1;fillColor=none;align=left;verticalAlign=middle;spacingTop=-1;spacingLeft=3;spacingRight=3;rotatable=0;labelPosition=right;points=[];portConstraint=eastwest;strokeColor=inherit;" vertex="1" parent="20">
                    <mxGeometry y="100" width="200" height="10" as="geometry"/>
                </mxCell>
                <mxCell id="23" value="+seleccionar(cls): List&amp;lt;Usuario&amp;gt;&lt;div&gt;+insertar(cls, usuario)&lt;/div&gt;&lt;div&gt;+actualizar(cls, usuario)&lt;/div&gt;&lt;div&gt;+eliminar(cls, usuario)&lt;/div&gt;" style="text;strokeColor=none;fillColor=none;align=left;verticalAlign=top;spacingLeft=4;spacingRight=4;overflow=hidden;rotatable=0;points=[[0,0.5],[1,0.5]];portConstraint=eastwest;whiteSpace=wrap;html=1;" vertex="1" parent="20">
                    <mxGeometry y="110" width="200" height="70" as="geometry"/>
                </mxCell>
                <mxCell id="24" value="" style="line;strokeWidth=1;fillColor=none;align=left;verticalAlign=middle;spacingTop=-1;spacingLeft=3;spacingRight=3;rotatable=0;labelPosition=right;points=[];portConstraint=eastwest;strokeColor=inherit;" vertex="1" parent="20">
                    <mxGeometry y="180" width="200" height="10" as="geometry"/>
                </mxCell>
                <mxCell id="25" value="Responsabilidades:&lt;div&gt;Realizar las operaciones CRUD (create-REad-Update-Delete) sobre la entidad Usuario (tabla usuario)&lt;/div&gt;" style="text;strokeColor=none;fillColor=none;align=left;verticalAlign=top;spacingLeft=4;spacingRight=4;overflow=hidden;rotatable=0;points=[[0,0.5],[1,0.5]];portConstraint=eastwest;whiteSpace=wrap;html=1;" vertex="1" parent="20">
                    <mxGeometry y="190" width="200" height="80" as="geometry"/>
                </mxCell>
                <mxCell id="26" value="Usuario" style="swimlane;fontStyle=1;align=center;verticalAlign=top;childLayout=stackLayout;horizontal=1;startSize=26;horizontalStack=0;resizeParent=1;resizeParentMax=0;resizeLast=0;collapsible=1;marginBottom=0;whiteSpace=wrap;html=1;" vertex="1" parent="2">
                    <mxGeometry x="330" y="60" width="200" height="180" as="geometry"/>
                </mxCell>
                <mxCell id="27" value="-id_usuario: int&lt;div&gt;&lt;span style=&quot;background-color: transparent;&quot;&gt;-username: String&lt;/span&gt;&lt;div&gt;-password: String&lt;/div&gt;&lt;/div&gt;" style="text;strokeColor=none;fillColor=none;align=left;verticalAlign=top;spacingLeft=4;spacingRight=4;overflow=hidden;rotatable=0;points=[[0,0.5],[1,0.5]];portConstraint=eastwest;whiteSpace=wrap;html=1;" vertex="1" parent="26">
                    <mxGeometry y="26" width="200" height="54" as="geometry"/>
                </mxCell>
                <mxCell id="28" value="" style="line;strokeWidth=1;fillColor=none;align=left;verticalAlign=middle;spacingTop=-1;spacingLeft=3;spacingRight=3;rotatable=0;labelPosition=right;points=[];portConstraint=eastwest;strokeColor=inherit;" vertex="1" parent="26">
                    <mxGeometry y="80" width="200" height="10" as="geometry"/>
                </mxCell>
                <mxCell id="29" value="+__str__(): String&lt;div&gt;+metodo Get/Set de cada atributo&lt;/div&gt;" style="text;strokeColor=none;fillColor=none;align=left;verticalAlign=top;spacingLeft=4;spacingRight=4;overflow=hidden;rotatable=0;points=[[0,0.5],[1,0.5]];portConstraint=eastwest;whiteSpace=wrap;html=1;" vertex="1" parent="26">
                    <mxGeometry y="90" width="200" height="40" as="geometry"/>
                </mxCell>
                <mxCell id="30" value="" style="line;strokeWidth=1;fillColor=none;align=left;verticalAlign=middle;spacingTop=-1;spacingLeft=3;spacingRight=3;rotatable=0;labelPosition=right;points=[];portConstraint=eastwest;strokeColor=inherit;" vertex="1" parent="26">
                    <mxGeometry y="130" width="200" height="10" as="geometry"/>
                </mxCell>
                <mxCell id="31" value="Responsabilidades:&lt;div&gt;Crear objetos de entidad Usuario&lt;/div&gt;" style="text;strokeColor=none;fillColor=none;align=left;verticalAlign=top;spacingLeft=4;spacingRight=4;overflow=hidden;rotatable=0;points=[[0,0.5],[1,0.5]];portConstraint=eastwest;whiteSpace=wrap;html=1;" vertex="1" parent="26">
                    <mxGeometry y="140" width="200" height="40" as="geometry"/>
                </mxCell>
                <mxCell id="46" value="" style="endArrow=diamondThin;endFill=0;endSize=24;html=1;" edge="1" parent="26" target="20">
                    <mxGeometry width="160" relative="1" as="geometry">
                        <mxPoint x="94" y="180" as="sourcePoint"/>
                        <mxPoint x="175" y="181" as="targetPoint"/>
                    </mxGeometry>
                </mxCell>
                <mxCell id="32" value="MenuAppUsuario" style="swimlane;fontStyle=1;align=center;verticalAlign=top;childLayout=stackLayout;horizontal=1;startSize=26;horizontalStack=0;resizeParent=1;resizeParentMax=0;resizeLast=0;collapsible=1;marginBottom=0;whiteSpace=wrap;html=1;" vertex="1" parent="2">
                    <mxGeometry x="600" y="90" width="160" height="160" as="geometry"/>
                </mxCell>
                <mxCell id="33" value="Responsabilidades:&lt;div&gt;- Contiene un menú con 5 opciones:&lt;/div&gt;&lt;div&gt;1) Listar usuarios&lt;/div&gt;&lt;div&gt;2) Agregar usuario&lt;/div&gt;&lt;div&gt;3) Actualizar usuario&lt;/div&gt;&lt;div&gt;4) Eliminar usuario&lt;/div&gt;&lt;div&gt;5) Salir&lt;/div&gt;" style="text;strokeColor=none;fillColor=none;align=left;verticalAlign=top;spacingLeft=4;spacingRight=4;overflow=hidden;rotatable=0;points=[[0,0.5],[1,0.5]];portConstraint=eastwest;whiteSpace=wrap;html=1;" vertex="1" parent="32">
                    <mxGeometry y="26" width="160" height="134" as="geometry"/>
                </mxCell>
                <mxCell id="44" value="" style="endArrow=diamondThin;endFill=0;endSize=24;html=1;" edge="1" parent="2">
                    <mxGeometry width="160" relative="1" as="geometry">
                        <mxPoint x="120" y="330" as="sourcePoint"/>
                        <mxPoint x="120" y="410" as="targetPoint"/>
                    </mxGeometry>
                </mxCell>
                <mxCell id="45" value="" style="endArrow=diamondThin;endFill=0;endSize=24;html=1;entryX=0.008;entryY=0.295;entryDx=0;entryDy=0;entryPerimeter=0;" edge="1" parent="2" target="23">
                    <mxGeometry width="160" relative="1" as="geometry">
                        <mxPoint x="231" y="540" as="sourcePoint"/>
                        <mxPoint x="231" y="620" as="targetPoint"/>
                    </mxGeometry>
                </mxCell>
                <mxCell id="47" value="" style="endArrow=diamondThin;endFill=0;endSize=24;html=1;" edge="1" parent="2">
                    <mxGeometry width="160" relative="1" as="geometry">
                        <mxPoint x="530" y="194.23000000000002" as="sourcePoint"/>
                        <mxPoint x="600" y="195" as="targetPoint"/>
                    </mxGeometry>
                </mxCell>
                <mxCell id="40" value="logger_base" style="swimlane;fontStyle=1;align=center;verticalAlign=top;childLayout=stackLayout;horizontal=1;startSize=26;horizontalStack=0;resizeParent=1;resizeParentMax=0;resizeLast=0;collapsible=1;marginBottom=0;whiteSpace=wrap;html=1;" vertex="1" parent="1">
                    <mxGeometry x="580" y="590" width="160" height="120" as="geometry"/>
                </mxCell>
                <mxCell id="41" value="+logger: logging" style="text;strokeColor=none;fillColor=none;align=left;verticalAlign=top;spacingLeft=4;spacingRight=4;overflow=hidden;rotatable=0;points=[[0,0.5],[1,0.5]];portConstraint=eastwest;whiteSpace=wrap;html=1;" vertex="1" parent="40">
                    <mxGeometry y="26" width="160" height="26" as="geometry"/>
                </mxCell>
                <mxCell id="42" value="" style="line;strokeWidth=1;fillColor=none;align=left;verticalAlign=middle;spacingTop=-1;spacingLeft=3;spacingRight=3;rotatable=0;labelPosition=right;points=[];portConstraint=eastwest;strokeColor=inherit;" vertex="1" parent="40">
                    <mxGeometry y="52" width="160" height="8" as="geometry"/>
                </mxCell>
                <mxCell id="43" value="Responsabilidades:&lt;div&gt;- Configuración de logging para toda la aplicación&lt;/div&gt;" style="text;strokeColor=none;fillColor=none;align=left;verticalAlign=top;spacingLeft=4;spacingRight=4;overflow=hidden;rotatable=0;points=[[0,0.5],[1,0.5]];portConstraint=eastwest;whiteSpace=wrap;html=1;" vertex="1" parent="40">
                    <mxGeometry y="60" width="160" height="60" as="geometry"/>
                </mxCell>
            </root>
        </mxGraphModel>
    </diagram>
</mxfile>